G04 #@! TF.GenerationSoftware,KiCad,Pcbnew,(5.0.1)-4*
G04 #@! TF.CreationDate,2020-04-24T23:34:40+02:00*
G04 #@! TF.ProjectId,VMC_remote,564D435F72656D6F74652E6B69636164,rev?*
G04 #@! TF.SameCoordinates,PX5f5e100PY7829b80*
G04 #@! TF.FileFunction,Copper,L2,Bot,Signal*
G04 #@! TF.FilePolarity,Positive*
%FSLAX46Y46*%
G04 Gerber Fmt 4.6, Leading zero omitted, Abs format (unit mm)*
G04 Created by KiCad (PCBNEW (5.0.1)-4) date 24/04/2020 23:34:40*
%MOMM*%
%LPD*%
G01*
G04 APERTURE LIST*
G04 #@! TA.AperFunction,ComponentPad*
%ADD10C,2.400000*%
G04 #@! TD*
G04 #@! TA.AperFunction,ComponentPad*
%ADD11O,2.400000X2.400000*%
G04 #@! TD*
G04 #@! TA.AperFunction,ComponentPad*
%ADD12R,2.400000X2.400000*%
G04 #@! TD*
G04 #@! TA.AperFunction,ComponentPad*
%ADD13R,3.000000X3.000000*%
G04 #@! TD*
G04 #@! TA.AperFunction,ComponentPad*
%ADD14C,3.000000*%
G04 #@! TD*
G04 #@! TA.AperFunction,ComponentPad*
%ADD15C,1.508000*%
G04 #@! TD*
G04 #@! TA.AperFunction,ComponentPad*
%ADD16R,1.508000X1.508000*%
G04 #@! TD*
G04 #@! TA.AperFunction,ComponentPad*
%ADD17C,2.300000*%
G04 #@! TD*
G04 #@! TA.AperFunction,ComponentPad*
%ADD18R,2.000000X2.300000*%
G04 #@! TD*
G04 #@! TA.AperFunction,ComponentPad*
%ADD19R,1.524000X1.524000*%
G04 #@! TD*
G04 #@! TA.AperFunction,ComponentPad*
%ADD20C,1.524000*%
G04 #@! TD*
G04 #@! TA.AperFunction,ComponentPad*
%ADD21R,1.727200X1.727200*%
G04 #@! TD*
G04 #@! TA.AperFunction,ComponentPad*
%ADD22C,1.727200*%
G04 #@! TD*
G04 #@! TA.AperFunction,ComponentPad*
%ADD23C,1.600000*%
G04 #@! TD*
G04 #@! TA.AperFunction,ViaPad*
%ADD24C,2.400000*%
G04 #@! TD*
G04 #@! TA.AperFunction,Conductor*
%ADD25C,2.000000*%
G04 #@! TD*
G04 #@! TA.AperFunction,Conductor*
%ADD26C,1.000000*%
G04 #@! TD*
G04 #@! TA.AperFunction,Conductor*
%ADD27C,0.254000*%
G04 #@! TD*
G04 APERTURE END LIST*
D10*
G04 #@! TO.P,F1,1*
G04 #@! TO.N,Net-(F1-Pad1)*
X52400000Y18050000D03*
D11*
G04 #@! TO.P,F1,2*
G04 #@! TO.N,VAC*
X72720000Y18050000D03*
G04 #@! TD*
G04 #@! TO.P,F2,2*
G04 #@! TO.N,+5V*
X49400000Y40730000D03*
D10*
G04 #@! TO.P,F2,1*
G04 #@! TO.N,Net-(F2-Pad1)*
X49400000Y61050000D03*
G04 #@! TD*
D12*
G04 #@! TO.P,J1,1*
G04 #@! TO.N,Net-(J1-Pad1)*
X65910000Y71210000D03*
D10*
G04 #@! TO.P,J1,2*
G04 #@! TO.N,Net-(J1-Pad2)*
X69410000Y71210000D03*
G04 #@! TO.P,J1,3*
G04 #@! TO.N,+5V*
X72910000Y71210000D03*
G04 #@! TO.P,J1,4*
G04 #@! TO.N,GND*
X76410000Y71210000D03*
G04 #@! TD*
D12*
G04 #@! TO.P,J2,1*
G04 #@! TO.N,Net-(J2-Pad1)*
X20650000Y71390000D03*
D10*
G04 #@! TO.P,J2,2*
G04 #@! TO.N,Net-(J2-Pad2)*
X17150000Y71390000D03*
G04 #@! TO.P,J2,3*
G04 #@! TO.N,Net-(J2-Pad3)*
X13650000Y71390000D03*
G04 #@! TO.P,J2,4*
G04 #@! TO.N,Net-(J2-Pad4)*
X10150000Y71390000D03*
G04 #@! TO.P,J2,5*
G04 #@! TO.N,+5V*
X6650000Y71390000D03*
G04 #@! TO.P,J2,6*
G04 #@! TO.N,GND*
X3150000Y71390000D03*
G04 #@! TD*
D13*
G04 #@! TO.P,J3,1*
G04 #@! TO.N,Net-(J3-Pad1)*
X72720000Y6620000D03*
D14*
G04 #@! TO.P,J3,2*
G04 #@! TO.N,Net-(F1-Pad1)*
X67640000Y6620000D03*
G04 #@! TD*
G04 #@! TO.P,J4,2*
G04 #@! TO.N,Net-(J4-Pad2)*
X46050000Y6620000D03*
G04 #@! TO.P,J4,3*
G04 #@! TO.N,Net-(J4-Pad3)*
X40970000Y6620000D03*
D13*
G04 #@! TO.P,J4,1*
G04 #@! TO.N,Net-(J3-Pad1)*
X51130000Y6620000D03*
D14*
G04 #@! TO.P,J4,4*
G04 #@! TO.N,Net-(J4-Pad4)*
X35890000Y6620000D03*
G04 #@! TD*
D15*
G04 #@! TO.P,K1,4*
G04 #@! TO.N,GND*
X2740000Y25670000D03*
G04 #@! TO.P,K1,3*
G04 #@! TO.N,Net-(K1-Pad3)*
X2740000Y23130000D03*
G04 #@! TO.P,K1,2*
G04 #@! TO.N,VAC*
X2740000Y12970000D03*
D16*
G04 #@! TO.P,K1,1*
G04 #@! TO.N,Net-(J4-Pad2)*
X2740000Y5350000D03*
G04 #@! TD*
D15*
G04 #@! TO.P,K2,4*
G04 #@! TO.N,GND*
X13030000Y25670000D03*
G04 #@! TO.P,K2,3*
G04 #@! TO.N,Net-(K2-Pad3)*
X13030000Y23130000D03*
G04 #@! TO.P,K2,2*
G04 #@! TO.N,VAC*
X13030000Y12970000D03*
D16*
G04 #@! TO.P,K2,1*
G04 #@! TO.N,Net-(J4-Pad3)*
X13030000Y5350000D03*
G04 #@! TD*
G04 #@! TO.P,K3,1*
G04 #@! TO.N,Net-(J4-Pad4)*
X23060000Y5350000D03*
D15*
G04 #@! TO.P,K3,2*
G04 #@! TO.N,VAC*
X23060000Y12970000D03*
G04 #@! TO.P,K3,3*
G04 #@! TO.N,Net-(K3-Pad3)*
X23060000Y23130000D03*
G04 #@! TO.P,K3,4*
G04 #@! TO.N,GND*
X23060000Y25670000D03*
G04 #@! TD*
D17*
G04 #@! TO.P,PS1,3*
G04 #@! TO.N,Net-(F2-Pad1)*
X57480000Y61000000D03*
D18*
G04 #@! TO.P,PS1,1*
G04 #@! TO.N,Net-(J3-Pad1)*
X57480000Y33000000D03*
D17*
G04 #@! TO.P,PS1,2*
G04 #@! TO.N,VAC*
X72680000Y33000000D03*
G04 #@! TO.P,PS1,4*
G04 #@! TO.N,GND*
X65080000Y61000000D03*
G04 #@! TD*
D11*
G04 #@! TO.P,R1,2*
G04 #@! TO.N,+5V*
X47320000Y67580000D03*
D10*
G04 #@! TO.P,R1,1*
G04 #@! TO.N,Net-(J1-Pad2)*
X60020000Y67580000D03*
G04 #@! TD*
G04 #@! TO.P,R2,1*
G04 #@! TO.N,Net-(J1-Pad1)*
X60020000Y72660000D03*
D11*
G04 #@! TO.P,R2,2*
G04 #@! TO.N,+5V*
X47320000Y72660000D03*
G04 #@! TD*
D19*
G04 #@! TO.P,U1,1*
G04 #@! TO.N,GND*
X7950000Y38370000D03*
D20*
G04 #@! TO.P,U1,2*
G04 #@! TO.N,+3V3*
X7950000Y40910000D03*
G04 #@! TO.P,U1,3*
G04 #@! TO.N,Net-(U1-Pad3)*
X10490000Y38370000D03*
G04 #@! TO.P,U1,4*
G04 #@! TO.N,Net-(U1-Pad4)*
X10490000Y40910000D03*
G04 #@! TO.P,U1,5*
G04 #@! TO.N,Net-(U1-Pad5)*
X13030000Y38370000D03*
G04 #@! TO.P,U1,6*
G04 #@! TO.N,Net-(U1-Pad6)*
X13030000Y40910000D03*
G04 #@! TO.P,U1,7*
G04 #@! TO.N,Net-(U1-Pad7)*
X15570000Y38370000D03*
G04 #@! TO.P,U1,8*
G04 #@! TO.N,Net-(U1-Pad8)*
X15570000Y40910000D03*
G04 #@! TD*
D21*
G04 #@! TO.P,XA1,D1*
G04 #@! TO.N,Net-(J2-Pad2)*
X27000000Y70120000D03*
D22*
G04 #@! TO.P,XA1,D0*
G04 #@! TO.N,Net-(J2-Pad1)*
X27000000Y67580000D03*
G04 #@! TO.P,XA1,RST1*
G04 #@! TO.N,Net-(XA1-PadRST1)*
X27000000Y65040000D03*
G04 #@! TO.P,XA1,GND1*
G04 #@! TO.N,GND*
X27000000Y62500000D03*
G04 #@! TO.P,XA1,D2*
G04 #@! TO.N,Net-(XA1-PadD2)*
X27000000Y59960000D03*
G04 #@! TO.P,XA1,D3*
G04 #@! TO.N,Net-(XA1-PadD3)*
X27000000Y57420000D03*
G04 #@! TO.P,XA1,D4*
G04 #@! TO.N,Net-(XA1-PadD4)*
X27000000Y54880000D03*
G04 #@! TO.P,XA1,D5*
G04 #@! TO.N,Net-(K1-Pad3)*
X27000000Y52340000D03*
G04 #@! TO.P,XA1,D6*
G04 #@! TO.N,Net-(K2-Pad3)*
X27000000Y49800000D03*
G04 #@! TO.P,XA1,D7*
G04 #@! TO.N,Net-(K3-Pad3)*
X27000000Y47260000D03*
G04 #@! TO.P,XA1,D8*
G04 #@! TO.N,Net-(XA1-PadD8)*
X27000000Y44720000D03*
G04 #@! TO.P,XA1,D9*
G04 #@! TO.N,Net-(U1-Pad4)*
X27000000Y42180000D03*
G04 #@! TO.P,XA1,D10*
G04 #@! TO.N,Net-(U1-Pad3)*
X27000000Y39640000D03*
G04 #@! TO.P,XA1,D11*
G04 #@! TO.N,Net-(U1-Pad6)*
X27000000Y37100000D03*
G04 #@! TO.P,XA1,D12*
G04 #@! TO.N,Net-(U1-Pad7)*
X27000000Y34560000D03*
G04 #@! TO.P,XA1,D13*
G04 #@! TO.N,Net-(U1-Pad5)*
X42240000Y34560000D03*
G04 #@! TO.P,XA1,3V3*
G04 #@! TO.N,+3V3*
X42240000Y37100000D03*
G04 #@! TO.P,XA1,AREF*
G04 #@! TO.N,Net-(XA1-PadAREF)*
X42240000Y39640000D03*
G04 #@! TO.P,XA1,A0*
G04 #@! TO.N,Net-(XA1-PadA0)*
X42240000Y42180000D03*
G04 #@! TO.P,XA1,A1*
G04 #@! TO.N,Net-(XA1-PadA1)*
X42240000Y44720000D03*
G04 #@! TO.P,XA1,A2*
G04 #@! TO.N,Net-(XA1-PadA2)*
X42240000Y47260000D03*
G04 #@! TO.P,XA1,A3*
G04 #@! TO.N,Net-(J2-Pad3)*
X42240000Y49800000D03*
G04 #@! TO.P,XA1,A4*
G04 #@! TO.N,Net-(J1-Pad2)*
X42240000Y52340000D03*
G04 #@! TO.P,XA1,A5*
G04 #@! TO.N,Net-(J1-Pad1)*
X42240000Y54880000D03*
G04 #@! TO.P,XA1,A6*
G04 #@! TO.N,Net-(XA1-PadA6)*
X42240000Y57420000D03*
G04 #@! TO.P,XA1,A7*
G04 #@! TO.N,Net-(XA1-PadA7)*
X42240000Y59960000D03*
G04 #@! TO.P,XA1,5V*
G04 #@! TO.N,+5V*
X42240000Y62500000D03*
G04 #@! TO.P,XA1,RST2*
G04 #@! TO.N,Net-(XA1-PadRST2)*
X42240000Y65040000D03*
G04 #@! TO.P,XA1,GND2*
G04 #@! TO.N,GND*
X42240000Y67580000D03*
G04 #@! TO.P,XA1,VIN*
G04 #@! TO.N,Net-(XA1-PadVIN)*
X42240000Y70120000D03*
G04 #@! TD*
D23*
G04 #@! TO.P,C1,1*
G04 #@! TO.N,+3V3*
X4140000Y33290000D03*
G04 #@! TO.P,C1,2*
G04 #@! TO.N,GND*
X9140000Y33290000D03*
G04 #@! TD*
D24*
G04 #@! TO.N,Net-(U1-Pad5)*
X39700000Y32020000D03*
X18110000Y32020000D03*
G04 #@! TO.N,+3V3*
X5410000Y29480000D03*
X37160000Y29480000D03*
G04 #@! TD*
D25*
G04 #@! TO.N,Net-(F1-Pad1)*
X56210000Y18050000D02*
X67640000Y6620000D01*
X52400000Y18050000D02*
X56210000Y18050000D01*
G04 #@! TO.N,VAC*
X2740000Y12970000D02*
X13030000Y12970000D01*
X23060000Y12970000D02*
X13030000Y12970000D01*
X72680000Y33000000D02*
X72680000Y28210000D01*
X72680000Y28210000D02*
X72720000Y28170000D01*
X49860000Y25670000D02*
X72720000Y25670000D01*
X39890009Y15700009D02*
X49860000Y25670000D01*
X25790009Y15700009D02*
X39890009Y15700009D01*
X23060000Y12970000D02*
X25790009Y15700009D01*
X72720000Y28170000D02*
X72720000Y25670000D01*
X72720000Y25670000D02*
X72720000Y18050000D01*
D26*
G04 #@! TO.N,+5V*
X41291953Y62500000D02*
X42240000Y62500000D01*
X26601932Y77190021D02*
X41291953Y62500000D01*
X10752965Y77190021D02*
X26601932Y77190021D01*
X6650000Y73087056D02*
X10752965Y77190021D01*
X6650000Y71390000D02*
X6650000Y73087056D01*
X48519999Y73859999D02*
X47320000Y72660000D01*
X49720001Y75060001D02*
X48519999Y73859999D01*
X70757055Y75060001D02*
X49720001Y75060001D01*
X72910000Y72907056D02*
X70757055Y75060001D01*
X72910000Y71210000D02*
X72910000Y72907056D01*
X47320000Y72660000D02*
X47320000Y67580000D01*
X42240000Y62500000D02*
X43510000Y62500000D01*
X43510000Y62500000D02*
X46120001Y65110001D01*
X46120001Y66380001D02*
X47320000Y67580000D01*
X46120001Y65110001D02*
X46120001Y66380001D01*
X49400000Y42427056D02*
X49400000Y40730000D01*
X49400000Y55854130D02*
X49400000Y42427056D01*
X43230529Y62023601D02*
X49400000Y55854130D01*
X42240000Y62023601D02*
X43230529Y62023601D01*
X42240000Y62500000D02*
X42240000Y62023601D01*
X41291953Y62500000D02*
X43510000Y62500000D01*
G04 #@! TO.N,Net-(F2-Pad1)*
X57430000Y61050000D02*
X57480000Y61000000D01*
X49400000Y61050000D02*
X57430000Y61050000D01*
G04 #@! TO.N,Net-(J1-Pad1)*
X64460000Y72660000D02*
X65910000Y71210000D01*
X60020000Y72660000D02*
X64460000Y72660000D01*
X46999999Y51341315D02*
X46999999Y38690001D01*
X42240000Y54880000D02*
X43461314Y54880000D01*
X43461314Y54880000D02*
X46999999Y51341315D01*
X58820001Y71460001D02*
X60020000Y72660000D01*
X57480000Y70120000D02*
X58820001Y71460001D01*
X59830001Y62128001D02*
X57480000Y64478002D01*
X59830001Y59871999D02*
X59830001Y62128001D01*
X58750000Y58791998D02*
X59830001Y59871999D01*
X57480000Y64478002D02*
X57480000Y70120000D01*
X58750000Y46527998D02*
X58750000Y58791998D01*
X50552001Y38329999D02*
X58750000Y46527998D01*
X47360001Y38329999D02*
X50552001Y38329999D01*
X46999999Y38690001D02*
X47360001Y38329999D01*
G04 #@! TO.N,Net-(J1-Pad2)*
X69410000Y69512944D02*
X69410000Y71210000D01*
X67477056Y67580000D02*
X69410000Y69512944D01*
X60020000Y67580000D02*
X67477056Y67580000D01*
X42240000Y52340000D02*
X42754130Y52340000D01*
X42754130Y52340000D02*
X44780000Y50314130D01*
X44780000Y37100000D02*
X46050000Y35830000D01*
X61219999Y66380001D02*
X60020000Y67580000D01*
X61530011Y66069989D02*
X61219999Y66380001D01*
X61530011Y46903832D02*
X61530011Y66069989D01*
X50456179Y35830000D02*
X61530011Y46903832D01*
X46050000Y35830000D02*
X50456179Y35830000D01*
X44780000Y50314130D02*
X44780000Y37100000D01*
G04 #@! TO.N,GND*
X25778686Y62500000D02*
X27000000Y62500000D01*
X10342944Y62500000D02*
X25778686Y62500000D01*
X3150000Y69692944D02*
X10342944Y62500000D01*
X3150000Y71390000D02*
X3150000Y69692944D01*
X66706345Y61000000D02*
X65080000Y61000000D01*
X67897056Y61000000D02*
X66706345Y61000000D01*
X76410000Y69512944D02*
X67897056Y61000000D01*
X76410000Y71210000D02*
X76410000Y69512944D01*
X41018686Y67580000D02*
X42240000Y67580000D01*
X39234556Y69364130D02*
X41018686Y67580000D01*
X38430000Y69364130D02*
X39234556Y69364130D01*
X3150000Y73087056D02*
X3150000Y71390000D01*
X8952975Y78890031D02*
X3150000Y73087056D01*
X27306099Y78890031D02*
X8952975Y78890031D01*
X36831999Y69364130D02*
X27306099Y78890031D01*
X38430000Y69364130D02*
X36831999Y69364130D01*
X3150000Y71390000D02*
X1600000Y69840000D01*
X1600000Y26810000D02*
X2740000Y25670000D01*
X1600000Y69840000D02*
X1600000Y26810000D01*
X23060000Y25670000D02*
X13030000Y25670000D01*
X76410000Y72907056D02*
X76410000Y71210000D01*
X72557045Y76760011D02*
X76410000Y72907056D01*
X45825881Y76760011D02*
X72557045Y76760011D01*
X38430000Y69364130D02*
X45825881Y76760011D01*
X7950000Y35830000D02*
X7950000Y38370000D01*
X7950000Y25670000D02*
X13030000Y25670000D01*
X2740000Y25670000D02*
X7950000Y25670000D01*
X9140000Y33290000D02*
X7950000Y33290000D01*
X7950000Y33290000D02*
X7950000Y35830000D01*
X9140000Y31940000D02*
X7950000Y30750000D01*
X9140000Y33290000D02*
X9140000Y31940000D01*
X7950000Y25670000D02*
X7950000Y30750000D01*
X7950000Y30750000D02*
X7950000Y33290000D01*
X9140000Y34640000D02*
X7950000Y35830000D01*
X9140000Y33290000D02*
X9140000Y34640000D01*
G04 #@! TO.N,Net-(J2-Pad1)*
X24460000Y67580000D02*
X27000000Y67580000D01*
X20650000Y71390000D02*
X24460000Y67580000D01*
G04 #@! TO.N,Net-(J2-Pad2)*
X27000000Y71983600D02*
X27000000Y70120000D01*
X25193599Y73790001D02*
X27000000Y71983600D01*
X17852945Y73790001D02*
X25193599Y73790001D01*
X17150000Y73087056D02*
X17852945Y73790001D01*
X17150000Y71390000D02*
X17150000Y73087056D01*
G04 #@! TO.N,Net-(J2-Pad3)*
X13650000Y71390000D02*
X13650000Y74550000D01*
X14590011Y75490011D02*
X25897766Y75490011D01*
X13650000Y74550000D02*
X14590011Y75490011D01*
X25897766Y75490011D02*
X38430000Y62957777D01*
X38430000Y62957777D02*
X38430000Y49800000D01*
X38430000Y49800000D02*
X42240000Y49800000D01*
D25*
G04 #@! TO.N,Net-(J3-Pad1)*
X51130000Y3120000D02*
X52710000Y1540000D01*
X51130000Y6620000D02*
X51130000Y3120000D01*
X72720000Y3120000D02*
X72720000Y6620000D01*
X71140000Y1540000D02*
X72720000Y3120000D01*
X52710000Y1540000D02*
X71140000Y1540000D01*
X76220000Y6620000D02*
X72720000Y6620000D01*
X57480000Y33000000D02*
X60480000Y33000000D01*
X67120000Y39640000D02*
X72182002Y39640000D01*
X60480000Y33000000D02*
X67120000Y39640000D01*
X72182002Y39640000D02*
X77800000Y34022002D01*
X77800000Y34022002D02*
X77800000Y8200000D01*
X77800000Y8200000D02*
X76220000Y6620000D01*
G04 #@! TO.N,Net-(J4-Pad2)*
X46050000Y4498680D02*
X43091320Y1540000D01*
X46050000Y6620000D02*
X46050000Y4498680D01*
X5494000Y5350000D02*
X2740000Y5350000D01*
X9304000Y1540000D02*
X5494000Y5350000D01*
X43091320Y1540000D02*
X9304000Y1540000D01*
G04 #@! TO.N,Net-(J4-Pad3)*
X19403990Y8969990D02*
X29349990Y8969990D01*
X13030000Y5350000D02*
X15784000Y5350000D01*
X15784000Y5350000D02*
X19403990Y8969990D01*
X29349990Y8969990D02*
X32080000Y11700000D01*
X40970000Y8200002D02*
X40970000Y6620000D01*
X37470002Y11700000D02*
X40970000Y8200002D01*
X32080000Y11700000D02*
X37470002Y11700000D01*
G04 #@! TO.N,Net-(J4-Pad4)*
X34620000Y5350000D02*
X35890000Y6620000D01*
X23060000Y5350000D02*
X34620000Y5350000D01*
D26*
G04 #@! TO.N,Net-(K1-Pad3)*
X28221314Y52340000D02*
X27000000Y52340000D01*
X34210020Y46351294D02*
X28221314Y52340000D01*
X34210020Y28983921D02*
X34210020Y46351294D01*
X24702088Y19475989D02*
X34210020Y28983921D01*
X6394011Y19475989D02*
X24702088Y19475989D01*
X2740000Y23130000D02*
X6394011Y19475989D01*
G04 #@! TO.N,Net-(K2-Pad3)*
X27476399Y49323601D02*
X27000000Y49800000D01*
X28354121Y48960009D02*
X27990529Y49323601D01*
X28925481Y48960009D02*
X28354121Y48960009D01*
X32510010Y45375481D02*
X28925481Y48960009D01*
X32510010Y29688088D02*
X32510010Y45375481D01*
X23997921Y21175999D02*
X32510010Y29688088D01*
X22122079Y21175999D02*
X23997921Y21175999D01*
X20168078Y23130000D02*
X22122079Y21175999D01*
X27990529Y49323601D02*
X27476399Y49323601D01*
X13030000Y23130000D02*
X20168078Y23130000D01*
G04 #@! TO.N,Net-(K3-Pad3)*
X23411922Y23130000D02*
X30810000Y30528078D01*
X23060000Y23130000D02*
X23411922Y23130000D01*
X28221314Y47260000D02*
X27000000Y47260000D01*
X30810000Y44671314D02*
X28221314Y47260000D01*
X30810000Y30528078D02*
X30810000Y44671314D01*
G04 #@! TO.N,Net-(U1-Pad3)*
X29063601Y38797713D02*
X29063601Y31543601D01*
X27000000Y39640000D02*
X28221314Y39640000D01*
X28221314Y39640000D02*
X29063601Y38797713D01*
X29063601Y31543601D02*
X25730000Y28210000D01*
X25730000Y28210000D02*
X18110000Y28210000D01*
X10490000Y35830000D02*
X10490000Y38370000D01*
X18110000Y28210000D02*
X10490000Y35830000D01*
G04 #@! TO.N,Net-(U1-Pad4)*
X10490000Y40910000D02*
X10490000Y43450000D01*
X10490000Y43450000D02*
X14300000Y47260000D01*
X25778686Y42180000D02*
X27000000Y42180000D01*
X20698686Y47260000D02*
X25778686Y42180000D01*
X14300000Y47260000D02*
X20698686Y47260000D01*
G04 #@! TO.N,Net-(U1-Pad5)*
X42240000Y34560000D02*
X42240000Y32020000D01*
X42240000Y32020000D02*
X39700000Y32020000D01*
X13030000Y37100000D02*
X18110000Y32020000D01*
X13030000Y38370000D02*
X13030000Y37100000D01*
G04 #@! TO.N,Net-(U1-Pad6)*
X25778686Y37100000D02*
X18158686Y44720000D01*
X27000000Y37100000D02*
X25778686Y37100000D01*
X13030000Y41987630D02*
X13030000Y40910000D01*
X15762370Y44720000D02*
X13030000Y41987630D01*
X18158686Y44720000D02*
X15762370Y44720000D01*
G04 #@! TO.N,Net-(U1-Pad7)*
X15570000Y38370000D02*
X19380000Y34560000D01*
X19380000Y34560000D02*
X27000000Y34560000D01*
G04 #@! TO.N,+3V3*
X42240000Y37100000D02*
X40970000Y37100000D01*
X40970000Y37100000D02*
X37160000Y33290000D01*
X37160000Y33290000D02*
X37160000Y31880001D01*
X37160000Y31880001D02*
X37160000Y29480000D01*
X4140000Y33290000D02*
X5410000Y32020000D01*
X5410000Y32020000D02*
X5410000Y29480000D01*
X4140000Y33290000D02*
X4140000Y39640000D01*
X5410000Y40910000D02*
X7950000Y40910000D01*
X4140000Y39640000D02*
X5410000Y40910000D01*
G04 #@! TD*
D27*
G04 #@! TO.N,GND*
G36*
X79098000Y67707000D02*
X76530000Y67707000D01*
X76481399Y67697333D01*
X76440197Y67669803D01*
X67587394Y58817000D01*
X62857011Y58817000D01*
X62857011Y65939298D01*
X62883007Y66069990D01*
X62857011Y66200681D01*
X62857011Y66200685D01*
X62846605Y66253000D01*
X67346364Y66253000D01*
X67477056Y66227004D01*
X67607748Y66253000D01*
X67607752Y66253000D01*
X67994826Y66329994D01*
X68433769Y66623287D01*
X68507804Y66734088D01*
X70255917Y68482200D01*
X70366712Y68556231D01*
X70440744Y68667027D01*
X70440746Y68667029D01*
X70576363Y68869994D01*
X70660006Y68995174D01*
X70737000Y69382248D01*
X70737000Y69382252D01*
X70762996Y69512944D01*
X70737000Y69643636D01*
X70737000Y69670390D01*
X71128407Y70061797D01*
X71160000Y70138069D01*
X71191593Y70061797D01*
X71761797Y69491593D01*
X72506805Y69183000D01*
X73313195Y69183000D01*
X74058203Y69491593D01*
X74628407Y70061797D01*
X74937000Y70806805D01*
X74937000Y71613195D01*
X74628407Y72358203D01*
X74237000Y72749610D01*
X74237000Y72776365D01*
X74262996Y72907057D01*
X74237000Y73037749D01*
X74237000Y73037752D01*
X74160006Y73424826D01*
X73866713Y73863769D01*
X73755915Y73937802D01*
X71787803Y75905913D01*
X71713768Y76016714D01*
X71274825Y76310007D01*
X70887751Y76387001D01*
X70887747Y76387001D01*
X70757055Y76412997D01*
X70626363Y76387001D01*
X49850692Y76387001D01*
X49720000Y76412997D01*
X49589308Y76387001D01*
X49589305Y76387001D01*
X49202231Y76310007D01*
X48763288Y76016714D01*
X48689255Y75905916D01*
X47674087Y74890747D01*
X47674084Y74890745D01*
X47470339Y74687000D01*
X47120359Y74687000D01*
X46529104Y74569392D01*
X45858615Y74121385D01*
X45410608Y73450896D01*
X45253289Y72660000D01*
X45410608Y71869104D01*
X45858615Y71198615D01*
X45993000Y71108821D01*
X45993001Y69131179D01*
X45858615Y69041385D01*
X45410608Y68370896D01*
X45253289Y67580000D01*
X45284820Y67421481D01*
X45274087Y67410747D01*
X45163289Y67336714D01*
X44869995Y66897771D01*
X44793001Y66510697D01*
X44793001Y66510693D01*
X44767005Y66380001D01*
X44793001Y66249309D01*
X44793001Y65659662D01*
X43930600Y64797261D01*
X43930600Y65376281D01*
X43673222Y65997648D01*
X43197648Y66473222D01*
X42576281Y66730600D01*
X41903719Y66730600D01*
X41282352Y66473222D01*
X40806778Y65997648D01*
X40549400Y65376281D01*
X40549400Y65119214D01*
X35212333Y70456281D01*
X40549400Y70456281D01*
X40549400Y69783719D01*
X40806778Y69162352D01*
X41282352Y68686778D01*
X41903719Y68429400D01*
X42576281Y68429400D01*
X43197648Y68686778D01*
X43673222Y69162352D01*
X43930600Y69783719D01*
X43930600Y70456281D01*
X43673222Y71077648D01*
X43197648Y71553222D01*
X42576281Y71810600D01*
X41903719Y71810600D01*
X41282352Y71553222D01*
X40806778Y71077648D01*
X40549400Y70456281D01*
X35212333Y70456281D01*
X27632680Y78035933D01*
X27558645Y78146734D01*
X27119702Y78440027D01*
X26732628Y78517021D01*
X26732624Y78517021D01*
X26601932Y78543017D01*
X26471240Y78517021D01*
X10883657Y78517021D01*
X10752965Y78543017D01*
X10622273Y78517021D01*
X10622269Y78517021D01*
X10235195Y78440027D01*
X9796252Y78146734D01*
X9722219Y78035936D01*
X5804086Y74117802D01*
X5693288Y74043769D01*
X5619255Y73932971D01*
X5619254Y73932970D01*
X5399994Y73604825D01*
X5382973Y73519254D01*
X5323000Y73217752D01*
X5323000Y73217748D01*
X5297004Y73087056D01*
X5323000Y72956364D01*
X5323000Y72929610D01*
X4931593Y72538203D01*
X4623000Y71793195D01*
X4623000Y70986805D01*
X4931593Y70241797D01*
X5501797Y69671593D01*
X6246805Y69363000D01*
X7053195Y69363000D01*
X7798203Y69671593D01*
X8368407Y70241797D01*
X8400000Y70318069D01*
X8431593Y70241797D01*
X9001797Y69671593D01*
X9746805Y69363000D01*
X10553195Y69363000D01*
X11298203Y69671593D01*
X11868407Y70241797D01*
X11900000Y70318069D01*
X11931593Y70241797D01*
X12501797Y69671593D01*
X13246805Y69363000D01*
X14053195Y69363000D01*
X14798203Y69671593D01*
X15368407Y70241797D01*
X15400000Y70318069D01*
X15431593Y70241797D01*
X16001797Y69671593D01*
X16746805Y69363000D01*
X17553195Y69363000D01*
X18298203Y69671593D01*
X18641609Y70014999D01*
X18670984Y69867321D01*
X18853767Y69593767D01*
X19127321Y69410984D01*
X19450000Y69346799D01*
X20816541Y69346799D01*
X23429253Y66734086D01*
X23503287Y66623287D01*
X23942230Y66329994D01*
X24329304Y66253000D01*
X24329308Y66253000D01*
X24460000Y66227004D01*
X24590692Y66253000D01*
X25822130Y66253000D01*
X25566778Y65997648D01*
X25309400Y65376281D01*
X25309400Y64703719D01*
X25566778Y64082352D01*
X26042352Y63606778D01*
X26663719Y63349400D01*
X27336281Y63349400D01*
X27957648Y63606778D01*
X28433222Y64082352D01*
X28690600Y64703719D01*
X28690600Y65376281D01*
X28433222Y65997648D01*
X28120870Y66310000D01*
X28433222Y66622352D01*
X28690600Y67243719D01*
X28690600Y67916281D01*
X28433222Y68537648D01*
X28370436Y68600434D01*
X28459833Y68660167D01*
X28642616Y68933721D01*
X28706801Y69256400D01*
X28706801Y70804316D01*
X37103000Y62408116D01*
X37103001Y49930700D01*
X37077003Y49800000D01*
X37179994Y49282230D01*
X37473287Y48843287D01*
X37912230Y48549994D01*
X38299304Y48473000D01*
X38299305Y48473000D01*
X38430000Y48447003D01*
X38560696Y48473000D01*
X41062130Y48473000D01*
X40806778Y48217648D01*
X40549400Y47596281D01*
X40549400Y46923719D01*
X40806778Y46302352D01*
X41119130Y45990000D01*
X40806778Y45677648D01*
X40549400Y45056281D01*
X40549400Y44383719D01*
X40806778Y43762352D01*
X41119130Y43450000D01*
X40806778Y43137648D01*
X40549400Y42516281D01*
X40549400Y41843719D01*
X40806778Y41222352D01*
X41119130Y40910000D01*
X40806778Y40597648D01*
X40549400Y39976281D01*
X40549400Y39303719D01*
X40806778Y38682352D01*
X41052555Y38436575D01*
X40970000Y38452996D01*
X40839308Y38427000D01*
X40839304Y38427000D01*
X40452230Y38350006D01*
X40013287Y38056713D01*
X39939254Y37945915D01*
X36314086Y34320746D01*
X36203287Y34246712D01*
X35909994Y33807769D01*
X35833000Y33420695D01*
X35833000Y33420692D01*
X35807004Y33290000D01*
X35833000Y33159308D01*
X35833000Y31019610D01*
X35537020Y30723630D01*
X35537020Y46220603D01*
X35563016Y46351295D01*
X35537020Y46481987D01*
X35537020Y46481990D01*
X35460026Y46869064D01*
X35166733Y47308007D01*
X35055935Y47382040D01*
X29252062Y53185912D01*
X29178027Y53296713D01*
X28739084Y53590006D01*
X28352010Y53667000D01*
X28352006Y53667000D01*
X28221314Y53692996D01*
X28199534Y53688664D01*
X28433222Y53922352D01*
X28690600Y54543719D01*
X28690600Y55216281D01*
X28433222Y55837648D01*
X28120870Y56150000D01*
X28433222Y56462352D01*
X28690600Y57083719D01*
X28690600Y57756281D01*
X28433222Y58377648D01*
X28120870Y58690000D01*
X28433222Y59002352D01*
X28690600Y59623719D01*
X28690600Y60296281D01*
X28433222Y60917648D01*
X27957648Y61393222D01*
X27336281Y61650600D01*
X26663719Y61650600D01*
X26042352Y61393222D01*
X25566778Y60917648D01*
X25309400Y60296281D01*
X25309400Y59623719D01*
X25566778Y59002352D01*
X25879130Y58690000D01*
X25566778Y58377648D01*
X25309400Y57756281D01*
X25309400Y57083719D01*
X25566778Y56462352D01*
X25879130Y56150000D01*
X25566778Y55837648D01*
X25309400Y55216281D01*
X25309400Y54543719D01*
X25566778Y53922352D01*
X25879130Y53610000D01*
X25566778Y53297648D01*
X25309400Y52676281D01*
X25309400Y52003719D01*
X25566778Y51382352D01*
X25879130Y51070000D01*
X25566778Y50757648D01*
X25309400Y50136281D01*
X25309400Y49463719D01*
X25566778Y48842352D01*
X25879130Y48530000D01*
X25566778Y48217648D01*
X25309400Y47596281D01*
X25309400Y46923719D01*
X25566778Y46302352D01*
X25879130Y45990000D01*
X25566778Y45677648D01*
X25309400Y45056281D01*
X25309400Y44525947D01*
X21729434Y48105912D01*
X21655399Y48216713D01*
X21216456Y48510006D01*
X20829382Y48587000D01*
X20829378Y48587000D01*
X20698686Y48612996D01*
X20567994Y48587000D01*
X14430692Y48587000D01*
X14300000Y48612996D01*
X14169308Y48587000D01*
X14169304Y48587000D01*
X13782230Y48510006D01*
X13343287Y48216713D01*
X13269254Y48105915D01*
X9644086Y44480746D01*
X9533288Y44406713D01*
X9459255Y44295915D01*
X9459254Y44295914D01*
X9239994Y43967769D01*
X9137004Y43450000D01*
X9163001Y43319304D01*
X9163000Y41944185D01*
X8850096Y42257089D01*
X8266072Y42499000D01*
X7633928Y42499000D01*
X7049904Y42257089D01*
X7029815Y42237000D01*
X5540691Y42237000D01*
X5409999Y42262996D01*
X5279307Y42237000D01*
X5279304Y42237000D01*
X4892230Y42160006D01*
X4453287Y41866713D01*
X4379254Y41755915D01*
X3294086Y40670746D01*
X3183288Y40596713D01*
X3109255Y40485915D01*
X3109254Y40485914D01*
X2889994Y40157769D01*
X2787004Y39640000D01*
X2813001Y39509304D01*
X2813000Y34263926D01*
X2760696Y34211622D01*
X2513000Y33613630D01*
X2513000Y32966370D01*
X2760696Y32368378D01*
X3218378Y31910696D01*
X3816370Y31663000D01*
X3890339Y31663000D01*
X4083000Y31470339D01*
X4083000Y31019610D01*
X3691593Y30628203D01*
X3383000Y29883195D01*
X3383000Y29076805D01*
X3691593Y28331797D01*
X4261797Y27761593D01*
X5006805Y27453000D01*
X5813195Y27453000D01*
X6558203Y27761593D01*
X7128407Y28331797D01*
X7437000Y29076805D01*
X7437000Y29883195D01*
X7128407Y30628203D01*
X6737000Y31019610D01*
X6737000Y31889309D01*
X6762996Y32020001D01*
X6737000Y32150695D01*
X6737000Y32150696D01*
X6660006Y32537770D01*
X6613915Y32606750D01*
X6440746Y32865915D01*
X6440744Y32865917D01*
X6366712Y32976713D01*
X6255917Y33050744D01*
X5767000Y33539661D01*
X5767000Y33613630D01*
X5519304Y34211622D01*
X5467000Y34263926D01*
X5467000Y39090340D01*
X5959661Y39583000D01*
X7029815Y39583000D01*
X7049904Y39562911D01*
X7633928Y39321000D01*
X8266072Y39321000D01*
X8850096Y39562911D01*
X9220000Y39932815D01*
X9512815Y39640000D01*
X9142911Y39270096D01*
X8901000Y38686072D01*
X8901000Y38053928D01*
X9142911Y37469904D01*
X9163001Y37449814D01*
X9163000Y35960692D01*
X9137004Y35830000D01*
X9163000Y35699308D01*
X9163000Y35699305D01*
X9239994Y35312231D01*
X9533287Y34873288D01*
X9644086Y34799254D01*
X17079254Y27364085D01*
X17153287Y27253287D01*
X17592230Y26959994D01*
X17979304Y26883000D01*
X17979307Y26883000D01*
X18109999Y26857004D01*
X18240691Y26883000D01*
X25288262Y26883000D01*
X23116262Y24711000D01*
X22745519Y24711000D01*
X22164435Y24470307D01*
X21719693Y24025565D01*
X21552592Y23622147D01*
X21198826Y23975912D01*
X21124791Y24086713D01*
X20685848Y24380006D01*
X20298774Y24457000D01*
X20298770Y24457000D01*
X20168078Y24482996D01*
X20037386Y24457000D01*
X13938872Y24457000D01*
X13925565Y24470307D01*
X13344481Y24711000D01*
X12715519Y24711000D01*
X12134435Y24470307D01*
X11689693Y24025565D01*
X11449000Y23444481D01*
X11449000Y22815519D01*
X11689693Y22234435D01*
X12134435Y21789693D01*
X12715519Y21549000D01*
X13344481Y21549000D01*
X13925565Y21789693D01*
X13938872Y21803000D01*
X19618418Y21803000D01*
X20618428Y20802989D01*
X6943672Y20802989D01*
X4321000Y23425660D01*
X4321000Y23444481D01*
X4080307Y24025565D01*
X3635565Y24470307D01*
X3054481Y24711000D01*
X2425519Y24711000D01*
X1844435Y24470307D01*
X1399693Y24025565D01*
X1159000Y23444481D01*
X1159000Y22815519D01*
X1399693Y22234435D01*
X1844435Y21789693D01*
X2425519Y21549000D01*
X2444340Y21549000D01*
X5363265Y18630074D01*
X5437298Y18519276D01*
X5876241Y18225983D01*
X6122495Y18177000D01*
X902000Y18177000D01*
X902000Y78883000D01*
X79098000Y78883000D01*
X79098000Y67707000D01*
X79098000Y67707000D01*
G37*
X79098000Y67707000D02*
X76530000Y67707000D01*
X76481399Y67697333D01*
X76440197Y67669803D01*
X67587394Y58817000D01*
X62857011Y58817000D01*
X62857011Y65939298D01*
X62883007Y66069990D01*
X62857011Y66200681D01*
X62857011Y66200685D01*
X62846605Y66253000D01*
X67346364Y66253000D01*
X67477056Y66227004D01*
X67607748Y66253000D01*
X67607752Y66253000D01*
X67994826Y66329994D01*
X68433769Y66623287D01*
X68507804Y66734088D01*
X70255917Y68482200D01*
X70366712Y68556231D01*
X70440744Y68667027D01*
X70440746Y68667029D01*
X70576363Y68869994D01*
X70660006Y68995174D01*
X70737000Y69382248D01*
X70737000Y69382252D01*
X70762996Y69512944D01*
X70737000Y69643636D01*
X70737000Y69670390D01*
X71128407Y70061797D01*
X71160000Y70138069D01*
X71191593Y70061797D01*
X71761797Y69491593D01*
X72506805Y69183000D01*
X73313195Y69183000D01*
X74058203Y69491593D01*
X74628407Y70061797D01*
X74937000Y70806805D01*
X74937000Y71613195D01*
X74628407Y72358203D01*
X74237000Y72749610D01*
X74237000Y72776365D01*
X74262996Y72907057D01*
X74237000Y73037749D01*
X74237000Y73037752D01*
X74160006Y73424826D01*
X73866713Y73863769D01*
X73755915Y73937802D01*
X71787803Y75905913D01*
X71713768Y76016714D01*
X71274825Y76310007D01*
X70887751Y76387001D01*
X70887747Y76387001D01*
X70757055Y76412997D01*
X70626363Y76387001D01*
X49850692Y76387001D01*
X49720000Y76412997D01*
X49589308Y76387001D01*
X49589305Y76387001D01*
X49202231Y76310007D01*
X48763288Y76016714D01*
X48689255Y75905916D01*
X47674087Y74890747D01*
X47674084Y74890745D01*
X47470339Y74687000D01*
X47120359Y74687000D01*
X46529104Y74569392D01*
X45858615Y74121385D01*
X45410608Y73450896D01*
X45253289Y72660000D01*
X45410608Y71869104D01*
X45858615Y71198615D01*
X45993000Y71108821D01*
X45993001Y69131179D01*
X45858615Y69041385D01*
X45410608Y68370896D01*
X45253289Y67580000D01*
X45284820Y67421481D01*
X45274087Y67410747D01*
X45163289Y67336714D01*
X44869995Y66897771D01*
X44793001Y66510697D01*
X44793001Y66510693D01*
X44767005Y66380001D01*
X44793001Y66249309D01*
X44793001Y65659662D01*
X43930600Y64797261D01*
X43930600Y65376281D01*
X43673222Y65997648D01*
X43197648Y66473222D01*
X42576281Y66730600D01*
X41903719Y66730600D01*
X41282352Y66473222D01*
X40806778Y65997648D01*
X40549400Y65376281D01*
X40549400Y65119214D01*
X35212333Y70456281D01*
X40549400Y70456281D01*
X40549400Y69783719D01*
X40806778Y69162352D01*
X41282352Y68686778D01*
X41903719Y68429400D01*
X42576281Y68429400D01*
X43197648Y68686778D01*
X43673222Y69162352D01*
X43930600Y69783719D01*
X43930600Y70456281D01*
X43673222Y71077648D01*
X43197648Y71553222D01*
X42576281Y71810600D01*
X41903719Y71810600D01*
X41282352Y71553222D01*
X40806778Y71077648D01*
X40549400Y70456281D01*
X35212333Y70456281D01*
X27632680Y78035933D01*
X27558645Y78146734D01*
X27119702Y78440027D01*
X26732628Y78517021D01*
X26732624Y78517021D01*
X26601932Y78543017D01*
X26471240Y78517021D01*
X10883657Y78517021D01*
X10752965Y78543017D01*
X10622273Y78517021D01*
X10622269Y78517021D01*
X10235195Y78440027D01*
X9796252Y78146734D01*
X9722219Y78035936D01*
X5804086Y74117802D01*
X5693288Y74043769D01*
X5619255Y73932971D01*
X5619254Y73932970D01*
X5399994Y73604825D01*
X5382973Y73519254D01*
X5323000Y73217752D01*
X5323000Y73217748D01*
X5297004Y73087056D01*
X5323000Y72956364D01*
X5323000Y72929610D01*
X4931593Y72538203D01*
X4623000Y71793195D01*
X4623000Y70986805D01*
X4931593Y70241797D01*
X5501797Y69671593D01*
X6246805Y69363000D01*
X7053195Y69363000D01*
X7798203Y69671593D01*
X8368407Y70241797D01*
X8400000Y70318069D01*
X8431593Y70241797D01*
X9001797Y69671593D01*
X9746805Y69363000D01*
X10553195Y69363000D01*
X11298203Y69671593D01*
X11868407Y70241797D01*
X11900000Y70318069D01*
X11931593Y70241797D01*
X12501797Y69671593D01*
X13246805Y69363000D01*
X14053195Y69363000D01*
X14798203Y69671593D01*
X15368407Y70241797D01*
X15400000Y70318069D01*
X15431593Y70241797D01*
X16001797Y69671593D01*
X16746805Y69363000D01*
X17553195Y69363000D01*
X18298203Y69671593D01*
X18641609Y70014999D01*
X18670984Y69867321D01*
X18853767Y69593767D01*
X19127321Y69410984D01*
X19450000Y69346799D01*
X20816541Y69346799D01*
X23429253Y66734086D01*
X23503287Y66623287D01*
X23942230Y66329994D01*
X24329304Y66253000D01*
X24329308Y66253000D01*
X24460000Y66227004D01*
X24590692Y66253000D01*
X25822130Y66253000D01*
X25566778Y65997648D01*
X25309400Y65376281D01*
X25309400Y64703719D01*
X25566778Y64082352D01*
X26042352Y63606778D01*
X26663719Y63349400D01*
X27336281Y63349400D01*
X27957648Y63606778D01*
X28433222Y64082352D01*
X28690600Y64703719D01*
X28690600Y65376281D01*
X28433222Y65997648D01*
X28120870Y66310000D01*
X28433222Y66622352D01*
X28690600Y67243719D01*
X28690600Y67916281D01*
X28433222Y68537648D01*
X28370436Y68600434D01*
X28459833Y68660167D01*
X28642616Y68933721D01*
X28706801Y69256400D01*
X28706801Y70804316D01*
X37103000Y62408116D01*
X37103001Y49930700D01*
X37077003Y49800000D01*
X37179994Y49282230D01*
X37473287Y48843287D01*
X37912230Y48549994D01*
X38299304Y48473000D01*
X38299305Y48473000D01*
X38430000Y48447003D01*
X38560696Y48473000D01*
X41062130Y48473000D01*
X40806778Y48217648D01*
X40549400Y47596281D01*
X40549400Y46923719D01*
X40806778Y46302352D01*
X41119130Y45990000D01*
X40806778Y45677648D01*
X40549400Y45056281D01*
X40549400Y44383719D01*
X40806778Y43762352D01*
X41119130Y43450000D01*
X40806778Y43137648D01*
X40549400Y42516281D01*
X40549400Y41843719D01*
X40806778Y41222352D01*
X41119130Y40910000D01*
X40806778Y40597648D01*
X40549400Y39976281D01*
X40549400Y39303719D01*
X40806778Y38682352D01*
X41052555Y38436575D01*
X40970000Y38452996D01*
X40839308Y38427000D01*
X40839304Y38427000D01*
X40452230Y38350006D01*
X40013287Y38056713D01*
X39939254Y37945915D01*
X36314086Y34320746D01*
X36203287Y34246712D01*
X35909994Y33807769D01*
X35833000Y33420695D01*
X35833000Y33420692D01*
X35807004Y33290000D01*
X35833000Y33159308D01*
X35833000Y31019610D01*
X35537020Y30723630D01*
X35537020Y46220603D01*
X35563016Y46351295D01*
X35537020Y46481987D01*
X35537020Y46481990D01*
X35460026Y46869064D01*
X35166733Y47308007D01*
X35055935Y47382040D01*
X29252062Y53185912D01*
X29178027Y53296713D01*
X28739084Y53590006D01*
X28352010Y53667000D01*
X28352006Y53667000D01*
X28221314Y53692996D01*
X28199534Y53688664D01*
X28433222Y53922352D01*
X28690600Y54543719D01*
X28690600Y55216281D01*
X28433222Y55837648D01*
X28120870Y56150000D01*
X28433222Y56462352D01*
X28690600Y57083719D01*
X28690600Y57756281D01*
X28433222Y58377648D01*
X28120870Y58690000D01*
X28433222Y59002352D01*
X28690600Y59623719D01*
X28690600Y60296281D01*
X28433222Y60917648D01*
X27957648Y61393222D01*
X27336281Y61650600D01*
X26663719Y61650600D01*
X26042352Y61393222D01*
X25566778Y60917648D01*
X25309400Y60296281D01*
X25309400Y59623719D01*
X25566778Y59002352D01*
X25879130Y58690000D01*
X25566778Y58377648D01*
X25309400Y57756281D01*
X25309400Y57083719D01*
X25566778Y56462352D01*
X25879130Y56150000D01*
X25566778Y55837648D01*
X25309400Y55216281D01*
X25309400Y54543719D01*
X25566778Y53922352D01*
X25879130Y53610000D01*
X25566778Y53297648D01*
X25309400Y52676281D01*
X25309400Y52003719D01*
X25566778Y51382352D01*
X25879130Y51070000D01*
X25566778Y50757648D01*
X25309400Y50136281D01*
X25309400Y49463719D01*
X25566778Y48842352D01*
X25879130Y48530000D01*
X25566778Y48217648D01*
X25309400Y47596281D01*
X25309400Y46923719D01*
X25566778Y46302352D01*
X25879130Y45990000D01*
X25566778Y45677648D01*
X25309400Y45056281D01*
X25309400Y44525947D01*
X21729434Y48105912D01*
X21655399Y48216713D01*
X21216456Y48510006D01*
X20829382Y48587000D01*
X20829378Y48587000D01*
X20698686Y48612996D01*
X20567994Y48587000D01*
X14430692Y48587000D01*
X14300000Y48612996D01*
X14169308Y48587000D01*
X14169304Y48587000D01*
X13782230Y48510006D01*
X13343287Y48216713D01*
X13269254Y48105915D01*
X9644086Y44480746D01*
X9533288Y44406713D01*
X9459255Y44295915D01*
X9459254Y44295914D01*
X9239994Y43967769D01*
X9137004Y43450000D01*
X9163001Y43319304D01*
X9163000Y41944185D01*
X8850096Y42257089D01*
X8266072Y42499000D01*
X7633928Y42499000D01*
X7049904Y42257089D01*
X7029815Y42237000D01*
X5540691Y42237000D01*
X5409999Y42262996D01*
X5279307Y42237000D01*
X5279304Y42237000D01*
X4892230Y42160006D01*
X4453287Y41866713D01*
X4379254Y41755915D01*
X3294086Y40670746D01*
X3183288Y40596713D01*
X3109255Y40485915D01*
X3109254Y40485914D01*
X2889994Y40157769D01*
X2787004Y39640000D01*
X2813001Y39509304D01*
X2813000Y34263926D01*
X2760696Y34211622D01*
X2513000Y33613630D01*
X2513000Y32966370D01*
X2760696Y32368378D01*
X3218378Y31910696D01*
X3816370Y31663000D01*
X3890339Y31663000D01*
X4083000Y31470339D01*
X4083000Y31019610D01*
X3691593Y30628203D01*
X3383000Y29883195D01*
X3383000Y29076805D01*
X3691593Y28331797D01*
X4261797Y27761593D01*
X5006805Y27453000D01*
X5813195Y27453000D01*
X6558203Y27761593D01*
X7128407Y28331797D01*
X7437000Y29076805D01*
X7437000Y29883195D01*
X7128407Y30628203D01*
X6737000Y31019610D01*
X6737000Y31889309D01*
X6762996Y32020001D01*
X6737000Y32150695D01*
X6737000Y32150696D01*
X6660006Y32537770D01*
X6613915Y32606750D01*
X6440746Y32865915D01*
X6440744Y32865917D01*
X6366712Y32976713D01*
X6255917Y33050744D01*
X5767000Y33539661D01*
X5767000Y33613630D01*
X5519304Y34211622D01*
X5467000Y34263926D01*
X5467000Y39090340D01*
X5959661Y39583000D01*
X7029815Y39583000D01*
X7049904Y39562911D01*
X7633928Y39321000D01*
X8266072Y39321000D01*
X8850096Y39562911D01*
X9220000Y39932815D01*
X9512815Y39640000D01*
X9142911Y39270096D01*
X8901000Y38686072D01*
X8901000Y38053928D01*
X9142911Y37469904D01*
X9163001Y37449814D01*
X9163000Y35960692D01*
X9137004Y35830000D01*
X9163000Y35699308D01*
X9163000Y35699305D01*
X9239994Y35312231D01*
X9533287Y34873288D01*
X9644086Y34799254D01*
X17079254Y27364085D01*
X17153287Y27253287D01*
X17592230Y26959994D01*
X17979304Y26883000D01*
X17979307Y26883000D01*
X18109999Y26857004D01*
X18240691Y26883000D01*
X25288262Y26883000D01*
X23116262Y24711000D01*
X22745519Y24711000D01*
X22164435Y24470307D01*
X21719693Y24025565D01*
X21552592Y23622147D01*
X21198826Y23975912D01*
X21124791Y24086713D01*
X20685848Y24380006D01*
X20298774Y24457000D01*
X20298770Y24457000D01*
X20168078Y24482996D01*
X20037386Y24457000D01*
X13938872Y24457000D01*
X13925565Y24470307D01*
X13344481Y24711000D01*
X12715519Y24711000D01*
X12134435Y24470307D01*
X11689693Y24025565D01*
X11449000Y23444481D01*
X11449000Y22815519D01*
X11689693Y22234435D01*
X12134435Y21789693D01*
X12715519Y21549000D01*
X13344481Y21549000D01*
X13925565Y21789693D01*
X13938872Y21803000D01*
X19618418Y21803000D01*
X20618428Y20802989D01*
X6943672Y20802989D01*
X4321000Y23425660D01*
X4321000Y23444481D01*
X4080307Y24025565D01*
X3635565Y24470307D01*
X3054481Y24711000D01*
X2425519Y24711000D01*
X1844435Y24470307D01*
X1399693Y24025565D01*
X1159000Y23444481D01*
X1159000Y22815519D01*
X1399693Y22234435D01*
X1844435Y21789693D01*
X2425519Y21549000D01*
X2444340Y21549000D01*
X5363265Y18630074D01*
X5437298Y18519276D01*
X5876241Y18225983D01*
X6122495Y18177000D01*
X902000Y18177000D01*
X902000Y78883000D01*
X79098000Y78883000D01*
X79098000Y67707000D01*
G04 #@! TD*
M02*
