M48
;DRILL file {KiCad (5.0.1)-4} date 24/04/2020 23:34:46
;FORMAT={-:-/ absolute / metric / decimal}
FMAT,2
METRIC,TZ
T1C0.760
T2C0.762
T3C0.800
T4C1.000
T5C1.016
T6C1.200
T7C1.520
%
G90
G05
M71
T1
X57.48Y61.
X65.08Y61.
T2
X7.95Y40.91
X7.95Y38.37
X10.49Y40.91
X10.49Y38.37
X13.03Y40.91
X13.03Y38.37
X15.57Y40.91
X15.57Y38.37
T3
X5.41Y29.48
X18.11Y32.02
X37.16Y29.48
X39.7Y32.02
X57.48Y33.
X72.68Y33.
X4.14Y33.29
X9.14Y33.29
T4
X13.03Y25.67
X13.03Y23.13
X13.03Y12.97
X13.03Y5.35
X23.06Y25.67
X23.06Y23.13
X23.06Y12.97
X23.06Y5.35
X2.74Y25.67
X2.74Y23.13
X2.74Y12.97
X2.74Y5.35
T5
X27.Y70.12
X27.Y67.58
X27.Y65.04
X27.Y62.5
X27.Y59.96
X27.Y57.42
X27.Y54.88
X27.Y52.34
X27.Y49.8
X27.Y47.26
X27.Y44.72
X27.Y42.18
X27.Y39.64
X27.Y37.1
X27.Y34.56
X42.24Y70.12
X42.24Y67.58
X42.24Y65.04
X42.24Y62.5
X42.24Y59.96
X42.24Y57.42
X42.24Y54.88
X42.24Y52.34
X42.24Y49.8
X42.24Y47.26
X42.24Y44.72
X42.24Y42.18
X42.24Y39.64
X42.24Y37.1
X42.24Y34.56
T6
X47.32Y67.58
X60.02Y67.58
X49.4Y61.05
X49.4Y40.73
X52.4Y18.05
X72.72Y18.05
X3.15Y71.39
X6.65Y71.39
X10.15Y71.39
X13.65Y71.39
X17.15Y71.39
X20.65Y71.39
X65.91Y71.21
X69.41Y71.21
X72.91Y71.21
X76.41Y71.21
X47.32Y72.66
X60.02Y72.66
T7
X67.64Y6.62
X72.72Y6.62
X35.89Y6.62
X40.97Y6.62
X46.05Y6.62
X51.13Y6.62
T0
M30
