G04 #@! TF.FileFunction,Copper,L1,Top*
%FSLAX46Y46*%
G04 Gerber Fmt 4.6, Leading zero omitted, Abs format (unit mm)*
G04 Created by KiCad (PCBNEW 4.0.7) date 10/21/18 23:34:25*
%MOMM*%
%LPD*%
G01*
G04 APERTURE LIST*
%ADD10C,0.100000*%
%ADD11C,3.000000*%
%ADD12R,3.000000X3.000000*%
%ADD13C,1.524000*%
%ADD14R,1.524000X1.524000*%
%ADD15R,1.600000X1.600000*%
%ADD16O,1.600000X1.600000*%
%ADD17R,1.850000X1.850000*%
%ADD18C,1.850000*%
%ADD19C,2.000000*%
%ADD20C,2.500000*%
%ADD21C,1.600000*%
%ADD22C,0.500000*%
G04 APERTURE END LIST*
D10*
X33020000Y0D02*
X0Y0D01*
X0Y95250000D02*
X33020000Y95250000D01*
X30480000Y81280000D02*
G75*
G03X30480000Y81280000I-1905000J0D01*
G01*
X6453046Y81280000D02*
G75*
G03X6453046Y81280000I-2008046J0D01*
G01*
X30480000Y13335000D02*
G75*
G03X30480000Y13335000I-1905000J0D01*
G01*
X6350000Y13335000D02*
G75*
G03X6350000Y13335000I-1905000J0D01*
G01*
X33020000Y95250000D02*
X33020000Y0D01*
X0Y0D02*
X0Y95250000D01*
D11*
X13881100Y91211400D03*
X18961100Y91211400D03*
D12*
X8801100Y91211400D03*
D11*
X24041100Y91211400D03*
D13*
X3086100Y71526400D03*
X3086100Y76606400D03*
X29756100Y76606400D03*
X29756100Y71526400D03*
D14*
X3721100Y57556400D03*
D13*
X6261100Y57556400D03*
X3721100Y55016400D03*
X6261100Y55016400D03*
X3721100Y52476400D03*
X6261100Y52476400D03*
X3721100Y49936400D03*
X6261100Y49936400D03*
X8801100Y62636400D03*
X11341100Y62636400D03*
X13881100Y62636400D03*
X16421100Y62636400D03*
X18961100Y62636400D03*
X21501100Y62636400D03*
X24041100Y62636400D03*
D15*
X9347200Y39547800D03*
D16*
X24587200Y6527800D03*
X9347200Y37007800D03*
X24587200Y9067800D03*
X9347200Y34467800D03*
X24587200Y11607800D03*
X9347200Y31927800D03*
X24587200Y14147800D03*
X9347200Y29387800D03*
X24587200Y16687800D03*
X9347200Y26847800D03*
X24587200Y19227800D03*
X9347200Y24307800D03*
X24587200Y21767800D03*
X9347200Y21767800D03*
X24587200Y24307800D03*
X9347200Y19227800D03*
X24587200Y26847800D03*
X9347200Y16687800D03*
X24587200Y29387800D03*
X9347200Y14147800D03*
X24587200Y31927800D03*
X9347200Y11607800D03*
X24587200Y34467800D03*
X9347200Y9067800D03*
X24587200Y37007800D03*
X9347200Y6527800D03*
X24587200Y39547800D03*
X9347200Y3987800D03*
X24587200Y3987800D03*
D11*
X13970000Y83929999D03*
X19050000Y83929999D03*
D12*
X8890000Y83929999D03*
D11*
X24130000Y83929999D03*
D17*
X13970000Y19050000D03*
D18*
X13970000Y16550000D03*
X13970000Y14050000D03*
X13970000Y11550000D03*
D19*
X21590000Y42545000D03*
X10160000Y42545000D03*
X2540000Y44450000D03*
X8255000Y44450000D03*
D20*
X10160000Y55245000D03*
X10160000Y50165000D03*
D19*
X21590000Y46355000D03*
X12700000Y46355000D03*
D21*
X8801100Y83908900D02*
X8890000Y83820000D01*
D22*
X10160000Y42545000D02*
X21590000Y42545000D01*
X2540000Y44450000D02*
X8255000Y44450000D01*
X10160000Y55245000D02*
X10160000Y50165000D01*
X21590000Y46355000D02*
X12700000Y46355000D01*
M02*
