M48
;DRILL file {KiCad 4.0.7} date 10/22/18 08:21:15
;FORMAT={-:-/ absolute / metric / decimal}
FMAT,2
METRIC,TZ
T1C0.762
T2C0.800
T3C0.900
T4C1.520
%
G90
G05
M71
T1
X3.086Y76.606
X3.086Y71.526
X3.721Y57.556
X3.721Y55.016
X3.721Y52.476
X3.721Y49.936
X6.261Y57.556
X6.261Y55.016
X6.261Y52.476
X6.261Y49.936
X8.801Y62.636
X11.341Y62.636
X13.881Y62.636
X16.421Y62.636
X18.961Y62.636
X21.501Y62.636
X24.041Y62.636
X29.756Y76.606
X29.756Y71.526
T2
X2.54Y44.45
X8.255Y44.45
X9.347Y39.548
X9.347Y37.008
X9.347Y34.468
X9.347Y31.928
X9.347Y29.388
X9.347Y26.848
X9.347Y24.308
X9.347Y21.768
X9.347Y19.228
X9.347Y16.688
X9.347Y14.148
X9.347Y11.608
X9.347Y9.068
X9.347Y6.528
X9.347Y3.988
X10.16Y55.245
X10.16Y50.165
X10.16Y42.545
X12.7Y46.355
X21.59Y46.355
X21.59Y42.545
X24.587Y39.548
X24.587Y37.008
X24.587Y34.468
X24.587Y31.928
X24.587Y29.388
X24.587Y26.848
X24.587Y24.308
X24.587Y21.768
X24.587Y19.228
X24.587Y16.688
X24.587Y14.148
X24.587Y11.608
X24.587Y9.068
X24.587Y6.528
X24.587Y3.988
T3
X13.97Y19.05
X13.97Y16.55
X13.97Y14.05
X13.97Y11.55
T4
X8.801Y91.211
X8.89Y83.93
X13.881Y91.211
X13.97Y83.93
X18.961Y91.211
X19.05Y83.93
X24.041Y91.211
X24.13Y83.93
T0
M30
