G04 #@! TF.FileFunction,Copper,L2,Bot,Mixed*
%FSLAX46Y46*%
G04 Gerber Fmt 4.6, Leading zero omitted, Abs format (unit mm)*
G04 Created by KiCad (PCBNEW 4.0.7) date 10/22/18 08:20:40*
%MOMM*%
%LPD*%
G01*
G04 APERTURE LIST*
%ADD10C,0.100000*%
%ADD11C,3.000000*%
%ADD12R,3.000000X3.000000*%
%ADD13C,1.524000*%
%ADD14R,1.524000X1.524000*%
%ADD15R,1.600000X1.600000*%
%ADD16O,1.600000X1.600000*%
%ADD17R,1.850000X1.850000*%
%ADD18C,1.850000*%
%ADD19C,2.000000*%
%ADD20C,2.500000*%
%ADD21C,1.600000*%
%ADD22C,0.500000*%
%ADD23C,1.000000*%
G04 APERTURE END LIST*
D10*
D11*
X13881100Y91211400D03*
X18961100Y91211400D03*
D12*
X8801100Y91211400D03*
D11*
X24041100Y91211400D03*
D13*
X3086100Y71526400D03*
X3086100Y76606400D03*
X29756100Y76606400D03*
X29756100Y71526400D03*
D14*
X3721100Y57556400D03*
D13*
X6261100Y57556400D03*
X3721100Y55016400D03*
X6261100Y55016400D03*
X3721100Y52476400D03*
X6261100Y52476400D03*
X3721100Y49936400D03*
X6261100Y49936400D03*
X8801100Y62636400D03*
X11341100Y62636400D03*
X13881100Y62636400D03*
X16421100Y62636400D03*
X18961100Y62636400D03*
X21501100Y62636400D03*
X24041100Y62636400D03*
D15*
X9347200Y39547800D03*
D16*
X24587200Y6527800D03*
X9347200Y37007800D03*
X24587200Y9067800D03*
X9347200Y34467800D03*
X24587200Y11607800D03*
X9347200Y31927800D03*
X24587200Y14147800D03*
X9347200Y29387800D03*
X24587200Y16687800D03*
X9347200Y26847800D03*
X24587200Y19227800D03*
X9347200Y24307800D03*
X24587200Y21767800D03*
X9347200Y21767800D03*
X24587200Y24307800D03*
X9347200Y19227800D03*
X24587200Y26847800D03*
X9347200Y16687800D03*
X24587200Y29387800D03*
X9347200Y14147800D03*
X24587200Y31927800D03*
X9347200Y11607800D03*
X24587200Y34467800D03*
X9347200Y9067800D03*
X24587200Y37007800D03*
X9347200Y6527800D03*
X24587200Y39547800D03*
X9347200Y3987800D03*
X24587200Y3987800D03*
D11*
X13970000Y83929999D03*
X19050000Y83929999D03*
D12*
X8890000Y83929999D03*
D11*
X24130000Y83929999D03*
D17*
X13970000Y19050000D03*
D18*
X13970000Y16550000D03*
X13970000Y14050000D03*
X13970000Y11550000D03*
D19*
X21590000Y42545000D03*
X10160000Y42545000D03*
X2540000Y44450000D03*
X8255000Y44450000D03*
D20*
X10160000Y55245000D03*
X10160000Y50165000D03*
D19*
X21590000Y46355000D03*
X12700000Y46355000D03*
D21*
X13970000Y83929999D02*
X13970000Y80645000D01*
X13970000Y80645000D02*
X18008600Y76606400D01*
X18008600Y76606400D02*
X29756100Y76606400D01*
X13881100Y91211400D02*
X13881100Y85178900D01*
X8890000Y83929999D02*
X8890000Y79375000D01*
X8890000Y79375000D02*
X16738600Y71526400D01*
X16738600Y71526400D02*
X29756100Y71526400D01*
X8801100Y91211400D02*
X8801100Y83908900D01*
D22*
X21590000Y42545000D02*
X19685000Y42545000D01*
X11430000Y41275000D02*
X10160000Y42545000D01*
X11430000Y33655000D02*
X11430000Y41275000D01*
X9702800Y31927800D02*
X11430000Y33655000D01*
X9347200Y31927800D02*
X9702800Y31927800D01*
X19685000Y42545000D02*
X19685000Y38735000D01*
X8801100Y61683900D02*
X19685000Y50800000D01*
X19685000Y50800000D02*
X19685000Y42545000D01*
X19685000Y38735000D02*
X21412200Y37007800D01*
X21412200Y37007800D02*
X24587200Y37007800D01*
X9347200Y31927800D02*
X9982200Y31927800D01*
X9982200Y31927800D02*
X11430000Y30480000D01*
X11430000Y30480000D02*
X11430000Y21590000D01*
X11430000Y21590000D02*
X13970000Y19050000D01*
X8801100Y62636400D02*
X8801100Y61683900D01*
D23*
X3086100Y71526400D02*
X3086100Y63588900D01*
X3086100Y63588900D02*
X4038600Y62636400D01*
X8801100Y62636400D02*
X4038600Y62636400D01*
X4038600Y62636400D02*
X3721100Y62318900D01*
X3721100Y62318900D02*
X3721100Y57556400D01*
D21*
X3086100Y71526400D02*
X5943600Y71526400D01*
X5943600Y71526400D02*
X8801100Y68668900D01*
X8801100Y68668900D02*
X8801100Y62636400D01*
D22*
X17780000Y33020000D02*
X17780000Y50800000D01*
X17780000Y50800000D02*
X11023600Y57556400D01*
X24587200Y6527800D02*
X23317200Y6527800D01*
X23317200Y6527800D02*
X22860000Y6985000D01*
X22860000Y6985000D02*
X22860000Y27940000D01*
X22860000Y27940000D02*
X17780000Y33020000D01*
X11023600Y57556400D02*
X6261100Y57556400D01*
X3721100Y55016400D02*
X2311400Y55016400D01*
X2311400Y55016400D02*
X635000Y53340000D01*
X635000Y53340000D02*
X635000Y46355000D01*
X635000Y46355000D02*
X2540000Y44450000D01*
X8255000Y44450000D02*
X6985000Y43180000D01*
X6985000Y43180000D02*
X6985000Y9525000D01*
X6985000Y9525000D02*
X7442200Y9067800D01*
X7442200Y9067800D02*
X9347200Y9067800D01*
X3721100Y55016400D02*
X3581400Y55016400D01*
X6261100Y55016400D02*
X9931400Y55016400D01*
X9931400Y55016400D02*
X10160000Y55245000D01*
X10160000Y50165000D02*
X14605000Y50165000D01*
X14605000Y50165000D02*
X15240000Y49530000D01*
X15240000Y49530000D02*
X15240000Y30480000D01*
X15240000Y30480000D02*
X19685000Y26035000D01*
X19685000Y26035000D02*
X19685000Y8890000D01*
X19685000Y8890000D02*
X19050000Y8255000D01*
X19050000Y8255000D02*
X13335000Y8255000D01*
X13335000Y8255000D02*
X9982200Y11607800D01*
X9982200Y11607800D02*
X9347200Y11607800D01*
X3721100Y52476400D02*
X2946400Y52476400D01*
X2946400Y52476400D02*
X1735002Y51265002D01*
X1735002Y51265002D02*
X1735002Y48429998D01*
X1735002Y48429998D02*
X4445000Y45720000D01*
X4445000Y45720000D02*
X4445000Y22225000D01*
X4445000Y22225000D02*
X1270000Y19050000D01*
X1270000Y19050000D02*
X635000Y18415000D01*
X635000Y18415000D02*
X635000Y3810000D01*
X635000Y3810000D02*
X3175000Y1270000D01*
X3175000Y1270000D02*
X22225000Y1270000D01*
X22225000Y1270000D02*
X24587200Y3632200D01*
X24587200Y3632200D02*
X24587200Y3987800D01*
X14198600Y52476400D02*
X16510000Y50165000D01*
X16510000Y50165000D02*
X16510000Y32385000D01*
X6261100Y52476400D02*
X14198600Y52476400D01*
X16510000Y32385000D02*
X21759998Y27135002D01*
X21759998Y27135002D02*
X21759998Y7789998D01*
X21759998Y7789998D02*
X20497800Y6527800D01*
X20497800Y6527800D02*
X9347200Y6527800D01*
X3721100Y49936400D02*
X3721100Y48983900D01*
X3721100Y48983900D02*
X5715000Y46990000D01*
X5715000Y46990000D02*
X5715000Y20320000D01*
X5715000Y20320000D02*
X1905000Y16510000D01*
X1905000Y16510000D02*
X1905000Y8890000D01*
X1905000Y8890000D02*
X6807200Y3987800D01*
X6807200Y3987800D02*
X9347200Y3987800D01*
X13881100Y62636400D02*
X13881100Y60413900D01*
X13881100Y60413900D02*
X17780000Y56515000D01*
X17780000Y56515000D02*
X27305000Y56515000D01*
X27305000Y56515000D02*
X27940000Y55880000D01*
X27940000Y55880000D02*
X27940000Y25400000D01*
X27940000Y25400000D02*
X26847800Y24307800D01*
X26847800Y24307800D02*
X24587200Y24307800D01*
X16421100Y62636400D02*
X16421100Y59778900D01*
X16421100Y59778900D02*
X18415000Y57785000D01*
X18415000Y57785000D02*
X27940000Y57785000D01*
X27940000Y57785000D02*
X29210000Y56515000D01*
X29210000Y56515000D02*
X29210000Y24765000D01*
X29210000Y24765000D02*
X26670000Y22225000D01*
X26670000Y22225000D02*
X25044400Y22225000D01*
X25044400Y22225000D02*
X24587200Y21767800D01*
X18961100Y62636400D02*
X18961100Y59778900D01*
X18961100Y59778900D02*
X19685000Y59055000D01*
X19685000Y59055000D02*
X27940000Y59055000D01*
X27940000Y59055000D02*
X28575000Y59055000D01*
X28575000Y59055000D02*
X29845000Y57785000D01*
X29845000Y57785000D02*
X30480000Y57150000D01*
X30480000Y57150000D02*
X30480000Y23495000D01*
X30480000Y23495000D02*
X26212800Y19227800D01*
X26212800Y19227800D02*
X24587200Y19227800D01*
D21*
X18961100Y91211400D02*
X18961100Y84018899D01*
X18961100Y84018899D02*
X19050000Y83929999D01*
X24041100Y91211400D02*
X24041100Y84018899D01*
X24041100Y84018899D02*
X24130000Y83929999D01*
D22*
X26670000Y46355000D02*
X21590000Y46355000D01*
X11341100Y61048900D02*
X17145000Y55245000D01*
X17145000Y55245000D02*
X25400000Y55245000D01*
X25400000Y55245000D02*
X26670000Y53975000D01*
X26670000Y53975000D02*
X26670000Y46355000D01*
X26670000Y46355000D02*
X26670000Y34010600D01*
X12700000Y46355000D02*
X12700000Y31750000D01*
X12700000Y31750000D02*
X13335000Y31115000D01*
X13335000Y31115000D02*
X13335000Y29210000D01*
X13335000Y29210000D02*
X17780000Y24765000D01*
X17780000Y24765000D02*
X17780000Y11430000D01*
X17780000Y11430000D02*
X17660000Y11550000D01*
X17660000Y11550000D02*
X13970000Y11550000D01*
X11341100Y62636400D02*
X11341100Y61048900D01*
X26670000Y34010600D02*
X24587200Y31927800D01*
D21*
X11341100Y62636400D02*
X11341100Y69938900D01*
X11341100Y69938900D02*
X4673600Y76606400D01*
X4673600Y76606400D02*
X3086100Y76606400D01*
D22*
X13970000Y16550000D02*
X9485000Y16550000D01*
X9485000Y16550000D02*
X9347200Y16687800D01*
X13970000Y14050000D02*
X9445000Y14050000D01*
X9445000Y14050000D02*
X9347200Y14147800D01*
M02*
